<svg height='300px' width='300px'  xmlns="http://www.w3.org/2000/svg" data-name="Layer 1" viewBox="0 0 100 100" x="0px" y="0px">
  <title>sort</title>
  <rect fill="#DDDDDD" width="100" height="100" rx="20" />
  <path fill="#333333" d="M20.56,12.3a2.75,2.75,0,0,1,3.89,0L38.19,26.05a2.75,2.75,0,0,1-1.94,4.7H28v55a2.75,2.75,0,0,1-2.75,2.75h-5.5A2.75,2.75,0,0,1,17,85.75v-55H8.75a2.75,2.75,0,0,1-1.94-4.7ZM44.5,19.75v-5.5a2.75,2.75,0,0,1,2.75-2.75h44A2.75,2.75,0,0,1,94,14.25v5.5a2.75,2.75,0,0,1-2.75,2.75h-44A2.75,2.75,0,0,1,44.5,19.75Zm0,16.5a2.75,2.75,0,0,1,2.75-2.75h33A2.75,2.75,0,0,1,83,36.25v5.5a2.75,2.75,0,0,1-2.75,2.75h-33a2.75,2.75,0,0,1-2.75-2.75Zm0,22a2.75,2.75,0,0,1,2.75-2.75h22A2.75,2.75,0,0,1,72,58.25v5.5a2.75,2.75,0,0,1-2.75,2.75h-22a2.75,2.75,0,0,1-2.75-2.75Zm0,22a2.75,2.75,0,0,1,2.75-2.75h11A2.75,2.75,0,0,1,61,80.25v5.5a2.75,2.75,0,0,1-2.75,2.75h-11a2.75,2.75,0,0,1-2.75-2.75Z"></path>
</svg>
